<?xml version="1.0" encoding="UTF-8" standalone="no"?>
<svg
   xmlns:dc="http://purl.org/dc/elements/1.1/"
   xmlns:cc="http://creativecommons.org/ns#"
   xmlns:rdf="http://www.w3.org/1999/02/22-rdf-syntax-ns#"
   xmlns:svg="http://www.w3.org/2000/svg"
   xmlns="http://www.w3.org/2000/svg"
   xmlns:sodipodi="http://sodipodi.sourceforge.net/DTD/sodipodi-0.dtd"
   xmlns:inkscape="http://www.inkscape.org/namespaces/inkscape"
   width="612pt"
   height="792pt"
   viewBox="0 0 612 792"
   version="1.1"
   id="svg2"
   inkscape:version="0.91 r13725"
   sodipodi:docname="NOKIA_LOGO_RGB.svg"
   inkscape:export-filename="D:\worksvn\pubs\doctools\branches\current\DocShared\content\images\nokia1\NOKIA_LOGO_RGB.png"
   inkscape:export-xdpi="90"
   inkscape:export-ydpi="90">
  <metadata
     id="metadata11">
    <rdf:RDF>
      <cc:Work
         rdf:about="">
        <dc:format>image/svg+xml</dc:format>
        <dc:type
           rdf:resource="http://purl.org/dc/dcmitype/StillImage" />
      </cc:Work>
    </rdf:RDF>
  </metadata>
  <defs
     id="defs9" />
  <sodipodi:namedview
     pagecolor="#ffffff"
     bordercolor="#666666"
     borderopacity="1"
     objecttolerance="10"
     gridtolerance="10"
     guidetolerance="10"
     inkscape:pageopacity="0"
     inkscape:pageshadow="2"
     inkscape:window-width="1600"
     inkscape:window-height="838"
     id="namedview7"
     showgrid="false"
     inkscape:zoom="0.95353535"
     inkscape:cx="380.40254"
     inkscape:cy="767.66949"
     inkscape:window-x="-8"
     inkscape:window-y="-8"
     inkscape:window-maximized="1"
     inkscape:current-layer="svg2" />
  <g
     id="surface1"
     transform="translate(-18.057628,-758.44067)">
    <path
       style="fill:#234a94;fill-opacity:1;fill-rule:nonzero;stroke:none"
       d="m 91.324219,767.45312 2.660156,-4.8789 2.652344,4.8789 z m 5.441406,-8.19531 -5.320313,0 -7.582031,13.45313 4.722657,0 1.257812,-2.33985 8.273438,0 1.265624,2.33985 4.957028,0 z m -17.980469,13.45313 4.285156,0 0,-13.45313 -4.285156,0 z m -1.769531,-13.45313 -5.636719,0 -7.230468,6.4375 7.804687,7.01563 6.050781,0 -8.601562,-7.16407 z m -17.148437,0 0,13.45313 4.28125,0 0,-13.45313 z m -5.53125,8.75781 c 0,0.78516 -0.08203,1.02344 -0.300782,1.21094 -0.214844,0.19141 -0.554687,0.2461 -1.488281,0.2461 l -6.648437,0 c -0.9375,0 -1.265626,-0.0547 -1.496094,-0.2461 -0.203125,-0.1875 -0.292969,-0.42578 -0.292969,-1.21094 l 0,-4.10937 c 0,-0.79297 0.08984,-1.02344 0.292969,-1.21094 0.230468,-0.19922 0.558594,-0.25 1.496094,-0.25 l 6.648437,0 c 0.933594,0 1.273437,0.0508 1.488281,0.25 0.21875,0.1875 0.300782,0.41797 0.300782,1.21094 z m -1.617188,-8.98046 -6.992188,0 c -2.441406,0 -3.699218,0.28125 -4.570312,1.19921 -0.558594,0.6211 -0.910156,1.26563 -0.910156,3.13282 l 0,5.1875 c 0,1.86718 0.351562,2.51172 0.910156,3.1289 0.871094,0.92969 2.128906,1.20703 4.570312,1.20703 l 6.992188,0 c 2.429688,0 3.699219,-0.27734 4.574219,-1.20703 0.558593,-0.61718 0.902343,-1.26172 0.902343,-3.1289 l 0,-5.1875 c 0,-1.86719 -0.34375,-2.51172 -0.902343,-3.13282 -0.875,-0.91796 -2.144531,-1.19921 -4.574219,-1.19921 z m -18.210938,10.26562 -8.125,-10.04297 -7.082031,0 0,13.45313 4.089844,0 0,-10.21485 8.273437,10.21485 6.9375,0 0,-13.45313 -4.09375,0 0,10.04297"
       id="path5"
       inkscape:connector-curvature="0" />
  </g>
</svg>
